<?xml version="1.0" encoding="UTF-8"?>
<svg width="620px" height="620px" viewBox="0 0 620 620" version="1.1" xmlns="http://www.w3.org/2000/svg" xmlns:xlink="http://www.w3.org/1999/xlink">
    <!-- Generator: Sketch 47.1 (45422) - http://www.bohemiancoding.com/sketch -->
    <title>kgalik-candidate</title>
    <desc>Created with Sketch.</desc>
    <defs></defs>
    <g id="Page-1" stroke="none" stroke-width="1" fill="none" fill-rule="evenodd">
        <g id="kgalik-candidate">
            <circle id="Oval" fill="#2F2B20" cx="310.5" cy="308.5" r="242.5"></circle>
            <g id="kgalik" transform="translate(141.000000, 148.000000)">
                <path d="M337.218346,0.136207211 C329.644986,-2.51655028 275.949859,33.9399169 245.807884,77.9756912 C230.888363,99.7283026 225.511277,115.114296 224.072339,125.497947 C206.047741,112.385746 183.857794,104.654852 159.850241,104.654852 C143.718983,104.654852 128.496528,108.141334 114.713012,114.356365 C111.683668,104.958025 105.927913,92.9827193 95.628143,77.9756912 C89.4179873,68.8805227 82.1475612,60.0885264 74.5742005,51.9786678 C73.9683317,50.9175648 73.4381965,50.3870133 73.4381965,50.3870133 L72.2264588,49.5532896 C71.9992579,49.3259104 71.7720571,49.0985311 71.6205899,48.8711519 C71.5448563,48.8711519 71.5448563,48.946945 71.4691227,48.946945 L59.6546801,40.458121 C59.6546801,40.458121 41.2514139,41.3676379 20.651873,62.8928701 C0.0523321726,84.3423092 -3.05274568,109.581402 2.32434035,112.537332 C5.88381984,114.507951 22.8481476,110.490919 39.5095409,101.850509 C53.7474589,122.087259 66.7736391,134.972081 76.6190079,143.006146 C60.1848154,162.181793 50.263713,187.117714 50.263713,214.327426 C50.263713,274.88609 99.3390897,324 159.850241,324 C220.361392,324 269.436769,274.88609 269.436769,214.327426 C269.436769,191.513712 262.469277,170.367445 250.579101,152.859245 C259.288466,148.008489 280.872543,133.22884 305.561699,96.5449936 C337.748482,48.6437727 344.791707,2.7889647 337.218346,0.136207211 Z" id="Shape" fill="#FFFFFF" fill-rule="nonzero"></path>
                <path d="M49.0764163,97.0885246 C49.0764163,97.0131148 49,97.0131148 49,96.9377049 C54.5783926,93.4688525 59.7747036,89.547541 64.1304348,85.1737705 C71.2371542,78.0852459 74.828722,71.9770492 76.5098814,67 C81.629776,72.7311475 86.5204216,78.8393443 90.7997365,85.0983607 C101.268775,100.406557 105.54809,111.340984 107,118.881967 C98.5942029,123.632787 90.9525692,129.363934 84.0750988,136 C76.2806324,130.268852 63.5191041,118.655738 49.0764163,97.0885246 Z" id="Shape" fill="#E6B9D5" fill-rule="nonzero"></path>
                <g id="Group" transform="translate(147.000000, 238.000000)" stroke="#362F26" stroke-width="8">
                    <path d="M0.385714286,0.52 L26.6914286,25.8514286" id="Shape"></path>
                    <path d="M0.385714286,25.8514286 L26.6914286,0.52" id="Shape"></path>
                </g>
                <circle id="Oval" fill="#E5007C" fill-rule="nonzero" cx="116.5" cy="225.5" r="20.5"></circle>
                <circle id="Oval" fill="#FFFFFF" fill-rule="nonzero" cx="116.5" cy="225.5" r="11.5"></circle>
                <circle id="Oval" fill="#E5007C" fill-rule="nonzero" cx="204.5" cy="225.5" r="20.5"></circle>
                <circle id="Oval" fill="#FFFFFF" fill-rule="nonzero" cx="204.5" cy="225.5" r="11.5"></circle>
                <path d="M232.906562,137.18348 C232.906562,137.18348 222.580839,125.344866 249.989559,86.7175958 C274.057603,52.7954152 314.297552,24.2613214 319.460413,26.0826465 C324.699199,27.9039717 316.878983,62.8885919 291.216525,99.6945373 C265.554067,136.500483 245.813715,145 245.813715,145 L232.906562,137.18348 Z" id="Shape" fill="#E6B9D5" fill-rule="nonzero"></path>
                <path d="M205.128617,24 L163.5,24.2266254 L121.871383,24 C121.871383,24 69,51.34613 69,58.5981424 L86.1680064,146 C86.1680064,146 112.679662,132.55356 159.094051,130.740557 C160.537379,130.665015 162.056672,130.665015 163.5,130.665015 C164.943328,130.665015 166.462621,130.665015 167.905949,130.740557 C214.320338,132.55356 240.831994,146 240.831994,146 L258,58.5981424 C258,51.34613 205.128617,24 205.128617,24 Z" id="Shape" fill="#005E1A" fill-rule="nonzero"></path>
                <polygon id="Shape" fill="#FFFFFF" fill-rule="nonzero" points="186 62.0187266 186 54.4794007 166.820598 54.4794007 166.820598 41 159.179402 41 159.179402 54.4794007 140 54.4794007 140 62.0187266 159.179402 62.0187266 159.179402 75.3458177 140 75.3458177 140 82.9612984 159.179402 82.9612984 159.179402 94.3845194 140 94.3845194 140 102 186 102 186 94.3845194 166.820598 94.3845194 166.820598 82.9612984 186 82.9612984 186 75.3458177 166.820598 75.3458177 166.820598 62.0187266"></polygon>
                <path d="M238.547153,137.157377 C234.312278,134.367213 205.953737,122 163,122 C120.046263,122 91.6877224,134.367213 87.452847,137.157377 C83.2179715,139.947541 78,145.15082 78,153.822951 C78,162.495082 87.452847,168 104.921708,168 C122.390569,168 143.186833,151.334426 163,151.334426 C182.813167,151.334426 203.609431,168 221.078292,168 C238.547153,168 248,162.419672 248,153.822951 C248,145.07541 242.857651,139.872131 238.547153,137.157377 Z" id="Shape" fill="#177F36" fill-rule="nonzero"></path>
            </g>
        </g>
    </g>
</svg>