<?xml version="1.0" encoding="utf-8"?>
<svg version="1.1" xmlns="http://www.w3.org/2000/svg" xmlns:xlink="http://www.w3.org/1999/xlink" x="0px" y="0px"
	 viewBox="0 0 595.3 595.3" style="enable-background:new 0 0 595.3 595.3;" xml:space="preserve">
<style type="text/css">
	.st0{fill:#FFFFFF;}
	.st1{fill:#E6B9D5;}
	.st2{fill:none;stroke:#362F26;stroke-width:8;stroke-miterlimit:10;}
	.st3{fill:#E5007C;}
	.st4{fill:#362F26;}
	.st5{fill:#6CDADC;}
	.st6{fill:none;stroke:#362F26;stroke-width:16;stroke-miterlimit:10;}
	.st7{fill:#005E1A;}
	.st8{fill:#177F36;}
</style>
<g id="Layer_2">
</g>
<g id="Layer_1">
	<path class="st0" d="M544.1,47.1c-11.7-4-94.4,52-140.9,119.9c-21.3,31.1-30,53.7-32.9,69.5c-22.7-14.8-49.7-23.3-78.8-23.3
		c-21.3,0-41.5,4.6-59.6,12.8c-4.4-14.9-13.4-34.2-30.4-59C155.1,99.2,72.3,43.1,60.7,47.1c-11.7,4-0.8,74.8,48.7,148.4
		c26.2,39,50.2,61.9,67,74.8c-18.5,24.3-29.5,54.6-29.5,87.5c0,79.9,64.8,144.7,144.7,144.7c79.9,0,144.7-64.8,144.7-144.7
		c0-28.5-8.2-55-22.4-77.4c15-9.1,46.3-32.4,81.6-84.9C544.9,121.9,555.8,51.1,544.1,47.1z"/>
	<circle class="st3" cx="233.6" cy="373.5" r="27.3"/>
	<circle class="st0" cx="233.6" cy="373.5" r="15.5"/>
	<circle class="st3" cx="350.3" cy="373.5" r="27.3"/>
	<circle class="st0" cx="350.3" cy="373.5" r="15.5"/>
	<path class="st1" d="M383.2,258c0,0-15.9-18.2,26.2-77.6c37-52.2,98.8-96.1,106.9-93.3c8,2.9-4,56.6-43.4,113.2
		C433.3,257,403,270.1,403,270.1L383.2,258z"/>
	<path class="st1" d="M221.6,258c0,0,15.9-18.2-26.2-77.6c-37-52.2-98.8-96.1-106.9-93.3c-8,2.9,4,56.6,43.4,113.2
		s69.8,69.7,69.8,69.7L221.6,258z"/>
	<path class="st0" d="M309,473h-33c-4.4,0-8-3.6-8-8v-19c0-4.4,3.6-8,8-8h33c4.4,0,8,3.6,8,8v19C317,469.4,313.4,473,309,473z"/>
	<g>
		<path class="st4" d="M285.7,435.5l-27.3,6.8c-2.2,0.5-4.3-1.5-4.7-4.6l-0.6-4.6c-0.4-3.1,1.1-6,3.3-6.6l27.3-6.8
			c2.2-0.5,4.3,1.5,4.7,4.6l0.6,4.6C289.4,432,287.9,434.9,285.7,435.5z"/>
		<path class="st4" d="M297.4,435.5l27.3,6.8c2.2,0.5,4.3-1.5,4.7-4.6l0.6-4.6c0.4-3.1-1.1-6-3.3-6.6l-27.3-6.8
			c-2.2-0.5-4.3,1.5-4.7,4.6l-0.6,4.6C293.7,432,295.2,434.9,297.4,435.5z"/>
	</g>
	<path class="st7" d="M350.4,106.1l-54.8,0.3l-54.8-0.3c0,0-69.6,36.2-69.6,45.8l22.6,115.7c0,0,34.9-17.8,96-20.2
		c1.9-0.1,3.9-0.1,5.8-0.1c1.9,0,3.9,0,5.8,0.1c61.1,2.4,96,20.2,96,20.2L420,151.9C420,142.3,350.4,106.1,350.4,106.1z"/>
	<polygon class="st0" points="325.6,156.8 325.6,146.9 300.5,146.9 300.5,129.2 290.5,129.2 290.5,146.9 265.4,146.9 265.4,156.8 
		290.5,156.8 290.5,174.3 265.4,174.3 265.4,184.3 290.5,184.3 290.5,199.3 265.4,199.3 265.4,209.3 325.6,209.3 325.6,199.3 
		300.5,199.3 300.5,184.3 325.6,184.3 325.6,174.3 300.5,174.3 300.5,156.8 	"/>
	<path class="st8" d="M395.4,256.5c-5.6-3.7-43.1-20.1-99.9-20.1c-56.8,0-94.3,16.4-99.9,20.1c-5.6,3.7-12.5,10.6-12.5,22.1
		c0,11.5,12.5,18.8,35.6,18.8c23.1,0,50.6-22.1,76.8-22.1c26.2,0,53.7,22.1,76.8,22.1c23.1,0,35.6-7.4,35.6-18.8
		C407.9,267,401.1,260.1,395.4,256.5z"/>
</g>
</svg>
