<?xml version="1.0" encoding="UTF-8"?>
<svg width="620px" height="620px" viewBox="0 0 620 620" version="1.1" xmlns="http://www.w3.org/2000/svg" xmlns:xlink="http://www.w3.org/1999/xlink">
    <defs></defs>
    <g id="Page-1" stroke="none" stroke-width="1" fill="none" fill-rule="evenodd">
        <g id="Artboard">
            <circle id="Oval" fill="#FFFFFF" cx="310.5" cy="310.5" r="242.5"></circle>
            <path d="M365.034073,301.553886 L208.49409,301.553886 L208.49409,301.553886 C202.155251,301.553886 197.016606,306.692531 197.016606,313.031371 C197.016606,319.37021 202.155251,324.508855 208.49409,324.508855 L222.656773,324.508855 L197.21302,455.405616 L197.21302,455.405616 C196.003512,461.627993 200.067246,467.652726 206.289623,468.862234 L206.289623,468.862234 L206.289623,468.862234 C212.512001,470.071741 218.536734,466.008008 219.746241,459.78563 L219.746241,459.78563 L246.041383,324.508855 L345.912827,324.508855 L372.207968,459.78563 L372.207968,459.78563 C373.417476,466.008008 379.442209,470.071741 385.664586,468.862234 L385.664586,468.862234 C391.886963,467.652726 395.950697,461.627993 394.741189,455.405616 L369.297437,324.508855 L373.769866,324.508855 C378.497972,324.508855 382.55834,321.649925 384.316571,317.566463 C384.776416,316.72414 385.137344,315.80994 385.380354,314.835278 L422.674445,165.256849 L422.674445,165.256849 C424.207949,159.1063 420.465095,152.877144 414.314546,151.34364 C408.163997,149.810136 401.934841,153.55299 400.401337,159.703539 L365.034073,301.553886 Z" id="Combined-Shape" fill="#2F2B20"></path>
        </g>
    </g>
</svg>