<?xml version="1.0" encoding="utf-8"?>
<svg version="1.1" xmlns="http://www.w3.org/2000/svg" xmlns:xlink="http://www.w3.org/1999/xlink" x="0px" y="0px"
	 viewBox="0 0 595.3 595.3" style="enable-background:new 0 0 595.3 595.3;" xml:space="preserve">
<style type="text/css">
	.st0{fill:#FFFFFF;}
	.st1{fill:#E6B9D5;}
	.st2{fill:none;stroke:#362F26;stroke-width:8;stroke-miterlimit:10;}
	.st3{fill:#E5007C;}
	.st4{fill:#362F26;}
	.st5{fill:#6CDADC;}
	.st6{fill:none;stroke:#362F26;stroke-width:16;stroke-miterlimit:10;}
	.st7{fill:#005E1A;}
	.st8{fill:#177F36;}
</style>
<g id="Layer_2">
</g>
<g id="Layer_1">
	<path class="st0" d="M525.7,75.3c-10-3.5-80.9,44.6-120.7,102.7c-19.7,28.7-26.8,49-28.7,62.7c-23.8-17.3-53.1-27.5-84.8-27.5
		c-21.3,0-41.4,4.6-59.6,12.8c-4-12.4-11.6-28.2-25.2-48c-8.2-12-17.8-23.6-27.8-34.3c-0.8-1.4-1.5-2.1-1.5-2.1l-1.6-1.1
		c-0.3-0.3-0.6-0.6-0.8-0.9c-0.1,0-0.1,0.1-0.2,0.1l-15.6-11.2c0,0-24.3,1.2-51.5,29.6c-27.2,28.3-31.3,61.6-24.2,65.5
		c4.7,2.6,27.1-2.7,49.1-14.1c18.8,26.7,36,43.7,49,54.3c-21.7,25.3-34.8,58.2-34.8,94.1c0,79.9,64.8,144.7,144.7,144.7
		s144.7-64.8,144.7-144.7c0-30.1-9.2-58-24.9-81.1c11.5-6.4,40-25.9,72.6-74.3C526.4,139.3,535.7,78.8,525.7,75.3z"/>
	<path class="st1" d="M144.2,203.2c0-0.1-0.1-0.1-0.1-0.2c7.3-4.6,14.1-9.8,19.8-15.6c9.3-9.4,14-17.5,16.2-24.1
		c6.7,7.6,13.1,15.7,18.7,24c13.7,20.3,19.3,34.8,21.2,44.8c-11,6.3-21,13.9-30,22.7C179.8,247.2,163.1,231.8,144.2,203.2z"/>
	<g>
		<line class="st2" x1="274.5" y1="390.7" x2="308.6" y2="424.8"/>
		<line class="st2" x1="274.5" y1="424.8" x2="308.6" y2="390.7"/>
	</g>
	<circle class="st3" cx="233.6" cy="373.5" r="27.3"/>
	<circle class="st0" cx="233.6" cy="373.5" r="15.5"/>
	<circle class="st3" cx="350.3" cy="373.5" r="27.3"/>
	<circle class="st0" cx="350.3" cy="373.5" r="15.5"/>
	<path class="st1" d="M387.8,256c0,0-13.6-15.6,22.5-66.5c31.7-44.7,84.7-82.3,91.5-79.9c6.9,2.4-3.4,48.5-37.2,97
		s-59.8,59.7-59.8,59.7L387.8,256z"/>
	<path class="st7" d="M350.4,106.1l-54.8,0.3l-54.8-0.3c0,0-69.6,36.2-69.6,45.8l22.6,115.7c0,0,34.9-17.8,96-20.2
		c1.9-0.1,3.9-0.1,5.8-0.1c1.9,0,3.9,0,5.8,0.1c61.1,2.4,96,20.2,96,20.2L420,151.9C420,142.3,350.4,106.1,350.4,106.1z"/>
	<polygon class="st0" points="325.6,156.8 325.6,146.9 300.5,146.9 300.5,129.2 290.5,129.2 290.5,146.9 265.4,146.9 265.4,156.8 
		290.5,156.8 290.5,174.3 265.4,174.3 265.4,184.3 290.5,184.3 290.5,199.3 265.4,199.3 265.4,209.3 325.6,209.3 325.6,199.3 
		300.5,199.3 300.5,184.3 325.6,184.3 325.6,174.3 300.5,174.3 300.5,156.8 	"/>
	<path class="st8" d="M395.4,256.5c-5.6-3.7-43.1-20.1-99.9-20.1c-56.8,0-94.3,16.4-99.9,20.1c-5.6,3.7-12.5,10.6-12.5,22.1
		c0,11.5,12.5,18.8,35.6,18.8c23.1,0,50.6-22.1,76.8-22.1c26.2,0,53.7,22.1,76.8,22.1c23.1,0,35.6-7.4,35.6-18.8
		C407.9,267,401.1,260.1,395.4,256.5z"/>
</g>
</svg>
