<?xml version="1.0" encoding="UTF-8"?>
<svg width="650px" height="650px" viewBox="0 0 650 650" version="1.1" xmlns="http://www.w3.org/2000/svg" xmlns:xlink="http://www.w3.org/1999/xlink">
    <defs></defs>
    <g id="Page-1" stroke="none" stroke-width="1" fill="none" fill-rule="evenodd">
        <g id="Group">
            <path d="M650,325 C650,145.507456 504.492544,0 325,0 C145.507456,0 0,145.507456 0,325 C0,504.492544 145.507456,650 325,650 C504.492544,650 650,504.492544 650,325 Z" id="Oval-1" fill="#2F2B20"></path>
            <path d="M553.945599,135.190477 C542.911379,131.415251 464.917361,184.26842 421.063409,248.352888 C400.97547,277.705273 392.770537,299.035302 390.035559,313.947446 C368.627286,299.979109 343.163701,291.956753 315.719615,291.956753 C295.631675,291.956753 276.581141,296.298263 259.511109,304.037477 C255.361487,289.974759 246.873626,271.759291 230.840998,248.352888 C187.081356,184.362801 108.993028,131.415251 98.0531175,135.190477 C87.0188973,138.965704 97.2986409,205.787211 143.98188,275.251376 C168.690989,312.059833 191.325286,333.673004 207.169295,345.848109 C189.722024,368.782609 179.34797,397.379949 179.34797,428.431186 C179.34797,503.841333 240.460575,565 315.813924,565 C391.167274,565 452.279878,503.841333 452.279878,428.431186 C452.279878,401.532698 444.546493,376.521823 431.154534,355.380556 C445.30097,346.791916 474.819866,324.801222 508.111146,275.251376 C554.700076,205.787211 564.979819,138.965704 553.945599,135.190477 Z" id="Shape" fill="#FFFFFF" fill-rule="nonzero"></path>
            <circle id="Oval" fill="#E5007C" fill-rule="nonzero" cx="261.5" cy="442.5" r="25.5"></circle>
            <circle id="Oval" fill="#FFFFFF" fill-rule="nonzero" cx="261.5" cy="442.5" r="14.5"></circle>
            <circle id="Oval" fill="#E5007C" fill-rule="nonzero" cx="371.5" cy="442.5" r="25.5"></circle>
            <circle id="Oval" fill="#FFFFFF" fill-rule="nonzero" cx="371.5" cy="442.5" r="14.5"></circle>
            <path d="M402.786989,334.569133 C402.786989,334.569133 387.735832,317.375597 427.588267,261.260431 C462.612973,211.947103 521.113698,170.474784 528.781269,173.119943 C536.354178,175.859572 524.994814,226.58995 487.698235,280.059956 C450.212334,333.624433 421.52994,346 421.52994,346 L402.786989,334.569133 Z" id="Shape" fill="#E6B9D5" fill-rule="nonzero"></path>
            <path d="M250.213011,334.657409 C250.213011,334.657409 265.264168,317.454479 225.411733,261.308654 C190.387027,211.968383 131.886302,170.473404 124.218731,173.120009 C116.645822,175.861135 128.005186,226.61923 165.301765,280.118451 C202.598343,333.617671 231.375399,346 231.375399,346 L250.213011,334.657409 Z" id="Shape" fill="#E6B9D5" fill-rule="nonzero"></path>
            <path d="M332.489796,537 L301.510204,537 C297.379592,537 294,533.605714 294,529.457143 L294,511.542857 C294,507.394286 297.379592,504 301.510204,504 L332.489796,504 C336.620408,504 340,507.394286 340,511.542857 L340,529.457143 C340,533.605714 336.620408,537 332.489796,537 Z" id="Shape" fill="#FFFFFF" fill-rule="nonzero"></path>
            <path d="M311.023077,501.8125 L285.123077,508.329167 C283.035897,508.808333 281.04359,506.891667 280.664103,503.920833 L280.094872,499.5125 C279.715385,496.541667 281.138462,493.7625 283.225641,493.1875 L309.125641,486.670833 C311.212821,486.191667 313.205128,488.108333 313.584615,491.079167 L314.153846,495.4875 C314.533333,498.458333 313.110256,501.2375 311.023077,501.8125 Z" id="Shape" fill="#362F26" fill-rule="nonzero"></path>
            <path d="M322.123077,501.8125 L348.023077,508.329167 C350.110256,508.808333 352.102564,506.891667 352.482051,503.920833 L353.051282,499.5125 C353.430769,496.541667 352.007692,493.7625 349.920513,493.1875 L324.020513,486.670833 C321.933333,486.191667 319.941026,488.108333 319.561538,491.079167 L318.992308,495.4875 C318.612821,498.458333 320.035897,501.2375 322.123077,501.8125 Z" id="Shape" fill="#362F26" fill-rule="nonzero"></path>
            <path d="M372.26045,191 L320.5,191.282353 L268.73955,191 C268.73955,191 203,225.070588 203,234.105882 L224.346463,343 C224.346463,343 257.310691,326.247059 315.021704,323.988235 C316.816318,323.894118 318.705386,323.894118 320.5,323.894118 C322.294614,323.894118 324.183682,323.894118 325.978296,323.988235 C383.689309,326.247059 416.653537,343 416.653537,343 L438,234.105882 C438,225.070588 372.26045,191 372.26045,191 Z" id="Shape" fill="#005E1A" fill-rule="nonzero"></path>
            <polygon id="Shape" fill="#FFFFFF" fill-rule="nonzero" points="349 238.187266 349 228.794007 325.234219 228.794007 325.234219 212 315.765781 212 315.765781 228.794007 292 228.794007 292 238.187266 315.765781 238.187266 315.765781 254.791511 292 254.791511 292 264.27965 315.765781 264.27965 315.765781 278.51186 292 278.51186 292 288 349 288 349 278.51186 325.234219 278.51186 325.234219 264.27965 349 264.27965 349 254.791511 325.234219 254.791511 325.234219 238.187266"></polygon>
            <path d="M414.211744,333.111475 C408.930605,329.593443 373.565836,314 320,314 C266.434164,314 231.069395,329.593443 225.788256,333.111475 C220.507117,336.629508 214,343.190164 214,354.12459 C214,365.059016 225.788256,372 247.572954,372 C269.357651,372 295.291815,350.986885 320,350.986885 C344.708185,350.986885 370.642349,372 392.427046,372 C414.211744,372 426,364.963934 426,354.12459 C426,343.095082 419.587189,336.534426 414.211744,333.111475 Z" id="Shape" fill="#177F36" fill-rule="nonzero"></path>
            <path d="M81,567.352878 L558.352878,90" id="Line-2" stroke="#000000" stroke-width="70" opacity="0.169780344" stroke-linecap="square"></path>
            <path d="M81,557.352878 L558.352878,80" id="Line" stroke="#FA0000" stroke-width="70" stroke-linecap="square"></path>
        </g>
    </g>
</svg>