<?xml version="1.0" encoding="UTF-8"?>
<svg width="620px" height="620px" viewBox="0 0 620 620" version="1.1" xmlns="http://www.w3.org/2000/svg" xmlns:xlink="http://www.w3.org/1999/xlink">
    <!-- Generator: Sketch 47.1 (45422) - http://www.bohemiancoding.com/sketch -->
    <title>supporters</title>
    <desc>Created with Sketch.</desc>
    <defs></defs>
    <g id="Page-1" stroke="none" stroke-width="1" fill="none" fill-rule="evenodd">
        <g id="supporters">
            <circle id="Oval" fill="#FFFFFF" cx="310.5" cy="310.5" r="242.5"></circle>
            <path d="M289.461885,276.68984 C289.461885,276.68984 285.6674,265.169202 282.776402,261.905241 C279.885404,258.640855 274.283945,260.561032 274.283945,260.561032 C274.283945,260.561032 272.416659,267.793529 267.658774,267.921286 C267.658774,267.921286 262.599328,268.497254 261.635928,260.369184 C261.635928,260.369184 258.563993,259.217247 255.672995,261.329272 C252.781996,263.441297 247.903487,272.273518 247,276.68984 L253.324009,279.570106 L255.492457,276.68984 L254.950045,296.658578 C254.950045,296.658578 272.296434,298.578755 280.788891,296.658578 L280.969428,275.537904 L282.595465,278.801865 L289.461885,276.68984" id="Fill-14" fill="#006B2B"></path>
            <path d="M247.048253,279 C243.79578,292.056695 244.518729,309.145167 248.493752,308.569199 C252.468774,307.993231 251.926762,304.921117 251.926762,299.736979 C251.926762,294.552416 253.553198,281.496145 253.553198,281.496145 L247.048253,279" id="Fill-15" fill="#006B2B"></path>
            <path d="M284,281.496145 C284,281.496145 285.626037,294.552416 285.626037,299.736979 C285.626037,304.921117 285.084024,307.993231 289.059047,308.569199 C293.034469,309.145167 293.757019,292.056695 290.504546,279 L284,281.496145" id="Fill-16" fill="#006B2B"></path>
            <path d="M276,300.058135 C276.996951,303.197735 279.798479,305.578432 281.965729,307.018989 C281.683739,302.195202 281.488822,299 281.488822,299 C279.674659,299.489382 277.828542,299.82936 276,300.058135" id="Fill-17" fill="#006B2B"></path>
            <path d="M261.319216,299.979613 C257.755595,299.556019 255.442557,299 255.442557,299 C255.442557,299 255.26162,302.297492 255,307.232483 C257.220373,305.808479 260.295104,303.31955 261.319216,299.979613" id="Fill-18" fill="#006B2B"></path>
            <path d="M273.82617,300.08022 C269.854343,300.43378 266.046277,300.292865 262.929208,300 C262.396782,302.113298 260.553461,307.140393 254.792634,309.400549 C254.058501,323.356212 252.884207,346.635176 253.009226,350.49081 C253.189763,356.059069 264.754155,357.979246 264.573218,351.642747 C264.392681,345.306672 266.380192,309.016853 266.380192,309.016853 L270.355215,309.016853 C270.355215,309.016853 271.981651,344.538431 272.523663,350.683083 C273.065675,356.82731 283.364706,358.939335 283.545643,351.066779 C283.670262,345.641981 282.421677,322.894844 281.633622,309.274065 C276.187937,306.988018 274.374573,302.19946 273.82617,300.08022" id="Fill-19" fill="#006B2B"></path>
            <path d="M268.841443,257.040852 C274.828741,257.040852 279.682486,251.883029 279.682486,245.520214 C279.682486,239.157823 274.828741,234 268.841443,234 C262.853746,234 258,239.157823 258,245.520214 C258,251.883029 262.853746,257.040852 268.841443,257.040852" id="Fill-20" fill="#006B2B"></path>
            <path d="M220.942816,548.288099 C220.709156,543.904034 220.547391,541 220.547391,541 C219.044775,541.444816 217.514998,541.75381 216,541.961786 C216.826399,544.814888 219.147425,546.979119 220.942816,548.288099" id="Fill-10" fill="#006B2B"></path>
            <path d="M199.366667,541 C199.366667,541 199.216885,543.996987 199,548.482494 C200.839726,547.188369 203.387224,544.925667 204.235591,541.89048 C201.283082,541.505511 199.366667,541 199.366667,541" id="Fill-11" fill="#006B2B"></path>
            <path d="M222.307311,588.413617 C222.410361,583.483295 221.376264,562.80871 220.723213,550.429 C216.21137,548.351355 214.709154,543.999123 214.254614,542.073004 C210.963797,542.394307 207.808783,542.266125 205.226536,542 C204.785577,543.921026 203.258197,548.489723 198.485134,550.544024 C197.876818,563.228059 196.903832,584.38566 197.007681,587.89028 C197.157464,592.950906 206.738339,594.696213 206.588556,588.937379 C206.438774,583.178546 208.085581,550.195557 208.085581,550.195557 L211.378794,550.195557 C211.378794,550.195557 212.726036,582.480338 213.175383,588.064726 C213.62433,593.649113 222.157528,595.568866 222.307311,588.413617" id="Fill-12" fill="#006B2B"></path>
            <path d="M210.209162,500.697067 C215.847367,500.697067 220.417924,495.840174 220.417924,489.848746 C220.417924,483.857318 215.847367,479 210.209162,479 C204.570557,479 200,483.857318 200,489.848746 C200,495.840174 204.570557,500.697067 210.209162,500.697067" id="Fill-21" fill="#006B2B"></path>
            <path d="M199.046558,516.672575 C199.046558,516.672575 201.03407,518.592752 202.299031,523.200922 C203.563993,527.809092 202.841043,532.417263 201.395544,534.72156 C199.950045,537.025433 199.950045,539.32973 199.950045,539.32973 C206.997003,542.209996 221.632931,539.32973 221.632931,539.32973 C221.813469,536.257617 218.199521,532.225415 218.560996,526.465308 C218.922471,520.704777 222.355481,516.672575 222.355481,516.672575 L223.620442,519.93696 L228.318414,516.288879 C225.969428,505.728329 215.850535,504.192272 215.850535,504.192272 C215.850535,504.192272 215.669998,512.448525 210.430014,511.872556 C205.190029,511.296588 205.370966,504 205.370966,504 C196.15556,504.192272 192,516.864847 192,516.864847 L197.601059,520.128808 L199.046558,516.672575" id="Fill-28" fill="#006B2B"></path>
            <path d="M196.364217,544.921117 C193.908586,536.223021 196.545154,521.880266 196.545154,521.880266 L191.124233,519 C191.124233,519 188.594709,530.904758 191.124233,543.769181 C192.389594,550.203727 197.448641,548.761472 196.364217,544.921117" id="Fill-29" fill="#006B2B"></path>
            <path d="M224,521.880266 C224,521.880266 226.636568,536.223021 224.180937,544.921117 C223.096513,548.761472 228.15556,550.203727 229.420921,543.769181 C231.950445,530.904758 229.420921,519 229.420921,519 L224,521.880266" id="Fill-30" fill="#006B2B"></path>
            <path d="M164.942816,453.288099 C164.709156,448.904034 164.547391,446 164.547391,446 C163.044775,446.444816 161.514998,446.75381 160,446.961786 C160.826399,449.814888 163.147425,451.979119 164.942816,453.288099" id="Fill-10" fill="#006B2B"></path>
            <path d="M143.366667,446 C143.366667,446 143.216885,448.996987 143,453.482494 C144.839726,452.188369 147.387224,449.925667 148.235591,446.89048 C145.283082,446.505511 143.366667,446 143.366667,446" id="Fill-11" fill="#006B2B"></path>
            <path d="M166.307311,493.413617 C166.410361,488.483295 165.376264,467.80871 164.723213,455.429 C160.21137,453.351355 158.709154,448.999123 158.254614,447.073004 C154.963797,447.394307 151.808783,447.266125 149.226536,447 C148.785577,448.921026 147.258197,453.489723 142.485134,455.544024 C141.876818,468.228059 140.903832,489.38566 141.007681,492.89028 C141.157464,497.950906 150.738339,499.696213 150.588556,493.937379 C150.438774,488.178546 152.085581,455.195557 152.085581,455.195557 L155.378794,455.195557 C155.378794,455.195557 156.726036,487.480338 157.175383,493.064726 C157.62433,498.649113 166.157528,500.568866 166.307311,493.413617" id="Fill-12" fill="#006B2B"></path>
            <path d="M154.209162,405.697067 C159.847367,405.697067 164.417924,400.840174 164.417924,394.848746 C164.417924,388.857318 159.847367,384 154.209162,384 C148.570557,384 144,388.857318 144,394.848746 C144,400.840174 148.570557,405.697067 154.209162,405.697067" id="Fill-21" fill="#006B2B"></path>
            <path d="M143.046558,421.672575 C143.046558,421.672575 145.03407,423.592752 146.299031,428.200922 C147.563993,432.809092 146.841043,437.417263 145.395544,439.72156 C143.950045,442.025433 143.950045,444.32973 143.950045,444.32973 C150.997003,447.209996 165.632931,444.32973 165.632931,444.32973 C165.813469,441.257617 162.199521,437.225415 162.560996,431.465308 C162.922471,425.704777 166.355481,421.672575 166.355481,421.672575 L167.620442,424.93696 L172.318414,421.288879 C169.969428,410.728329 159.850535,409.192272 159.850535,409.192272 C159.850535,409.192272 159.669998,417.448525 154.430014,416.872556 C149.190029,416.296588 149.370966,409 149.370966,409 C140.15556,409.192272 136,421.864847 136,421.864847 L141.601059,425.128808 L143.046558,421.672575" id="Fill-28" fill="#006B2B"></path>
            <path d="M140.364217,449.921117 C137.908586,441.223021 140.545154,426.880266 140.545154,426.880266 L135.124233,424 C135.124233,424 132.594709,435.904758 135.124233,448.769181 C136.389594,455.203727 141.448641,453.761472 140.364217,449.921117" id="Fill-29" fill="#006B2B"></path>
            <path d="M168,426.880266 C168,426.880266 170.636568,441.223021 168.180937,449.921117 C167.096513,453.761472 172.15556,455.203727 173.420921,448.769181 C175.950445,435.904758 173.420921,424 173.420921,424 L168,426.880266" id="Fill-30" fill="#006B2B"></path>
            <path d="M359.841443,375.040852 C365.828741,375.040852 370.682886,369.883029 370.682886,363.520638 C370.682886,357.157823 365.828741,352 359.841443,352 C353.854145,352 349,357.157823 349,363.520638 C349,369.883029 353.854145,375.040852 359.841443,375.040852" id="Fill-24" fill="#006B2B"></path>
            <path d="M342.950045,419.581574 C342.408033,396.924842 347.106005,392.89264 347.106005,392.89264 L347.106005,413.437346 C358.308523,416.125764 372.763913,413.437346 372.763913,413.437346 L372.763913,392.316672 C376.015987,397.50081 377.461486,419.197878 377.461486,419.197878 C379.26846,417.469549 384.327906,417.853669 384.327906,417.853669 C385.050456,414.397435 382.882407,393.852729 378.184435,384.636388 C373.486463,375.420047 366.07843,378.492161 366.07843,378.492161 C365.355481,395.004665 359.754022,399.805108 359.754022,399.805108 C353.972026,394.044577 353.610951,378.10804 353.610951,378.10804 C353.610951,378.10804 345.841043,376.379711 340.601059,386.748413 C335.74332,396.360758 335,418.621909 335,418.621909 C336.806574,418.045517 342.950045,419.581574 342.950045,419.581574" id="Fill-31" fill="#006B2B"></path>
            <path d="M358.542012,380.398267 C358.33711,380.964898 359.264961,382.894413 359.264961,382.894413 L358,394.606899 C358,394.606899 359.445499,396.718924 359.987511,397.679012 C359.987511,397.679012 361.613947,395.566987 362.15596,394.606899 L360.890998,383.470381 C360.890998,383.470381 362.15596,381.934324 362.15596,380.59054 C362.15596,379.246331 359.445499,377.902122 358.542012,380.398267" id="Fill-32" fill="#006B2B"></path>
            <path d="M375.556077,467.458539 C375.194603,460.161951 372.845617,416 372.845617,416 C357.487139,419.648082 347.368645,416 347.368645,416 C347.368645,416 345.427467,463.794753 345.019659,468.418627 C344.477647,474.562854 355.31869,475.906639 355.861102,468.418627 C356.403114,460.930191 358.209689,426.56055 358.209689,426.56055 L361.643099,426.56055 C361.643099,426.56055 363.088598,461.50616 364.172622,468.226355 C365.256647,474.94655 375.917552,474.754702 375.556077,467.458539" id="Fill-33" fill="#006B2B"></path>
            <path d="M377,421.692864 C377,421.692864 377.903487,428.605332 381.517434,426.877003 C385.130982,425.149098 384.227895,420.156807 384.227895,420.156807 C381.15596,419.388567 377,421.692864 377,421.692864" id="Fill-34" fill="#006B2B"></path>
            <path d="M342.327883,421.692864 C342.327883,421.692864 338.172323,419.388567 335.100387,420.156807 C335.100387,420.156807 334.196901,425.149098 337.810848,426.877003 C341.424396,428.605332 342.327883,421.692864 342.327883,421.692864" id="Fill-35" fill="#006B2B"></path>
            <path d="M109.841443,295.040852 C115.828741,295.040852 120.682886,289.883029 120.682886,283.520638 C120.682886,277.157823 115.828741,272 109.841443,272 C103.854145,272 99,277.157823 99,283.520638 C99,289.883029 103.854145,295.040852 109.841443,295.040852" id="Fill-24" fill="#006B2B"></path>
            <path d="M92.9500453,339.581574 C92.4080331,316.924842 97.106005,312.89264 97.106005,312.89264 L97.106005,333.437346 C108.308523,336.125764 122.763913,333.437346 122.763913,333.437346 L122.763913,312.316672 C126.015987,317.50081 127.461486,339.197878 127.461486,339.197878 C129.26846,337.469549 134.327906,337.853669 134.327906,337.853669 C135.050456,334.397435 132.882407,313.852729 128.184435,304.636388 C123.486463,295.420047 116.07843,298.492161 116.07843,298.492161 C115.355481,315.004665 109.754022,319.805108 109.754022,319.805108 C103.972026,314.044577 103.610951,298.10804 103.610951,298.10804 C103.610951,298.10804 95.8410435,296.379711 90.6010593,306.748413 C85.7433196,316.360758 85,338.621909 85,338.621909 C86.8065743,338.045517 92.9500453,339.581574 92.9500453,339.581574" id="Fill-31" fill="#006B2B"></path>
            <path d="M108.542012,300.398267 C108.33711,300.964898 109.264961,302.894413 109.264961,302.894413 L108,314.606899 C108,314.606899 109.445499,316.718924 109.987511,317.679012 C109.987511,317.679012 111.613947,315.566987 112.15596,314.606899 L110.890998,303.470381 C110.890998,303.470381 112.15596,301.934324 112.15596,300.59054 C112.15596,299.246331 109.445499,297.902122 108.542012,300.398267" id="Fill-32" fill="#006B2B"></path>
            <path d="M125.556077,387.458539 C125.194603,380.161951 122.845617,336 122.845617,336 C107.487139,339.648082 97.3686452,336 97.3686452,336 C97.3686452,336 95.4274665,383.794753 95.0196592,388.418627 C94.477647,394.562854 105.31869,395.906639 105.861102,388.418627 C106.403114,380.930191 108.209689,346.56055 108.209689,346.56055 L111.643099,346.56055 C111.643099,346.56055 113.088598,381.50616 114.172622,388.226355 C115.256647,394.94655 125.917552,394.754702 125.556077,387.458539" id="Fill-33" fill="#006B2B"></path>
            <path d="M127,341.692864 C127,341.692864 127.903487,348.605332 131.517434,346.877003 C135.130982,345.149098 134.227895,340.156807 134.227895,340.156807 C131.15596,339.388567 127,341.692864 127,341.692864" id="Fill-34" fill="#006B2B"></path>
            <path d="M92.3278829,341.692864 C92.3278829,341.692864 88.1723226,339.388567 85.1003874,340.156807 C85.1003874,340.156807 84.1969006,345.149098 87.810848,346.877003 C91.424396,348.605332 92.3278829,341.692864 92.3278829,341.692864" id="Fill-35" fill="#006B2B"></path>
            <g id="Group-2" transform="translate(449.000000, 330.000000)" fill="#006B2B">
                <path d="M24.8414429,23.0408517 C30.8287409,23.0408517 35.6828858,17.8830286 35.6828858,11.5206381 C35.6828858,5.15782316 30.8287409,0 24.8414429,0 C18.8541449,0 14,5.15782316 14,11.5206381 C14,17.8830286 18.8541449,23.0408517 24.8414429,23.0408517" id="Fill-24"></path>
                <path d="M7.9500453,67.5815736 C7.40803306,44.9248421 12.106005,40.89264 12.106005,40.89264 L12.106005,61.4373464 C23.3085231,64.1257641 37.7639134,61.4373464 37.7639134,61.4373464 L37.7639134,40.3166718 C41.0159868,45.5008104 42.4614859,67.1978777 42.4614859,67.1978777 C44.2684596,65.4695485 49.3279062,65.8536688 49.3279062,65.8536688 C50.050456,62.397435 47.8824071,41.8527286 43.1844352,32.6363879 C38.4864633,23.4200472 31.0784302,26.4921608 31.0784302,26.4921608 C30.3554809,43.0046651 24.7540222,47.8051078 24.7540222,47.8051078 C18.9720258,42.0445765 18.6109506,26.1080405 18.6109506,26.1080405 C18.6109506,26.1080405 10.8410435,24.3797113 5.60105934,34.7484129 C0.743319649,44.3607583 0,66.6219095 0,66.6219095 C1.8065743,66.0455168 7.9500453,67.5815736 7.9500453,67.5815736" id="Fill-31"></path>
                <path d="M23.5420122,28.3982672 C23.33711,28.9648977 24.2649615,30.8944125 24.2649615,30.8944125 L23,42.6068985 C23,42.6068985 24.4454991,44.7189236 24.9875113,45.6790121 C24.9875113,45.6790121 26.6139474,43.5669871 27.1559597,42.6068985 L25.8909982,31.4703808 C25.8909982,31.4703808 27.1559597,29.934324 27.1559597,28.5905396 C27.1559597,27.2463307 24.4454991,25.9021219 23.5420122,28.3982672" id="Fill-32"></path>
                <path d="M40.5560772,115.458539 C40.1946026,108.161951 37.8456166,64 37.8456166,64 C22.4871388,67.6480818 12.3686452,64 12.3686452,64 C12.3686452,64 10.4274665,111.794753 10.0196592,116.418627 C9.477647,122.562854 20.3186905,123.906639 20.8611021,116.418627 C21.4031144,108.930191 23.2096887,74.5605495 23.2096887,74.5605495 L26.6430985,74.5605495 C26.6430985,74.5605495 28.0885976,109.50616 29.1726221,116.226355 C30.2566465,122.94655 40.9175518,122.754702 40.5560772,115.458539" id="Fill-33"></path>
                <path d="M42,69.6928641 C42,69.6928641 42.9034869,76.6053318 46.5174343,74.8770027 C50.1309823,73.149098 49.2278949,68.1568073 49.2278949,68.1568073 C46.1559597,67.3885667 42,69.6928641 42,69.6928641" id="Fill-34"></path>
                <path d="M7.32788289,69.6928641 C7.32788289,69.6928641 3.17232264,67.3885667 0.100387429,68.1568073 C0.100387429,68.1568073 -0.803099431,73.149098 2.81084801,74.8770027 C6.42439603,76.6053318 7.32788289,69.6928641 7.32788289,69.6928641" id="Fill-35"></path>
            </g>
            <path d="M260.841443,392.040852 C266.828741,392.040852 271.682886,386.883029 271.682886,380.520638 C271.682886,374.157823 266.828741,369 260.841443,369 C254.854145,369 250,374.157823 250,380.520638 C250,386.883029 254.854145,392.040852 260.841443,392.040852" id="Fill-24" fill="#006B2B"></path>
            <path d="M243.950045,436.581574 C243.408033,413.924842 248.106005,409.89264 248.106005,409.89264 L248.106005,430.437346 C259.308523,433.125764 273.763913,430.437346 273.763913,430.437346 L273.763913,409.316672 C277.015987,414.50081 278.461486,436.197878 278.461486,436.197878 C280.26846,434.469549 285.327906,434.853669 285.327906,434.853669 C286.050456,431.397435 283.882407,410.852729 279.184435,401.636388 C274.486463,392.420047 267.07843,395.492161 267.07843,395.492161 C266.355481,412.004665 260.754022,416.805108 260.754022,416.805108 C254.972026,411.044577 254.610951,395.10804 254.610951,395.10804 C254.610951,395.10804 246.841043,393.379711 241.601059,403.748413 C236.74332,413.360758 236,435.621909 236,435.621909 C237.806574,435.045517 243.950045,436.581574 243.950045,436.581574" id="Fill-31" fill="#006B2B"></path>
            <path d="M259.542012,397.398267 C259.33711,397.964898 260.264961,399.894413 260.264961,399.894413 L259,411.606899 C259,411.606899 260.445499,413.718924 260.987511,414.679012 C260.987511,414.679012 262.613947,412.566987 263.15596,411.606899 L261.890998,400.470381 C261.890998,400.470381 263.15596,398.934324 263.15596,397.59054 C263.15596,396.246331 260.445499,394.902122 259.542012,397.398267" id="Fill-32" fill="#006B2B"></path>
            <path d="M276.556077,484.458539 C276.194603,477.161951 273.845617,433 273.845617,433 C258.487139,436.648082 248.368645,433 248.368645,433 C248.368645,433 246.427467,480.794753 246.019659,485.418627 C245.477647,491.562854 256.31869,492.906639 256.861102,485.418627 C257.403114,477.930191 259.209689,443.56055 259.209689,443.56055 L262.643099,443.56055 C262.643099,443.56055 264.088598,478.50616 265.172622,485.226355 C266.256647,491.94655 276.917552,491.754702 276.556077,484.458539" id="Fill-33" fill="#006B2B"></path>
            <path d="M278,438.692864 C278,438.692864 278.903487,445.605332 282.517434,443.877003 C286.130982,442.149098 285.227895,437.156807 285.227895,437.156807 C282.15596,436.388567 278,438.692864 278,438.692864" id="Fill-34" fill="#006B2B"></path>
            <path d="M243.327883,438.692864 C243.327883,438.692864 239.172323,436.388567 236.100387,437.156807 C236.100387,437.156807 235.196901,442.149098 238.810848,443.877003 C242.424396,445.605332 243.327883,438.692864 243.327883,438.692864" id="Fill-35" fill="#006B2B"></path>
            <path d="M369.841443,508.040852 C375.828741,508.040852 380.682886,502.883029 380.682886,496.520638 C380.682886,490.157823 375.828741,485 369.841443,485 C363.854145,485 359,490.157823 359,496.520638 C359,502.883029 363.854145,508.040852 369.841443,508.040852" id="Fill-24" fill="#006B2B"></path>
            <path d="M352.950045,552.581574 C352.408033,529.924842 357.106005,525.89264 357.106005,525.89264 L357.106005,546.437346 C368.308523,549.125764 382.763913,546.437346 382.763913,546.437346 L382.763913,525.316672 C386.015987,530.50081 387.461486,552.197878 387.461486,552.197878 C389.26846,550.469549 394.327906,550.853669 394.327906,550.853669 C395.050456,547.397435 392.882407,526.852729 388.184435,517.636388 C383.486463,508.420047 376.07843,511.492161 376.07843,511.492161 C375.355481,528.004665 369.754022,532.805108 369.754022,532.805108 C363.972026,527.044577 363.610951,511.10804 363.610951,511.10804 C363.610951,511.10804 355.841043,509.379711 350.601059,519.748413 C345.74332,529.360758 345,551.621909 345,551.621909 C346.806574,551.045517 352.950045,552.581574 352.950045,552.581574" id="Fill-31" fill="#006B2B"></path>
            <path d="M368.542012,513.398267 C368.33711,513.964898 369.264961,515.894413 369.264961,515.894413 L368,527.606899 C368,527.606899 369.445499,529.718924 369.987511,530.679012 C369.987511,530.679012 371.613947,528.566987 372.15596,527.606899 L370.890998,516.470381 C370.890998,516.470381 372.15596,514.934324 372.15596,513.59054 C372.15596,512.246331 369.445499,510.902122 368.542012,513.398267" id="Fill-32" fill="#006B2B"></path>
            <path d="M385.556077,600.458539 C385.194603,593.161951 382.845617,549 382.845617,549 C367.487139,552.648082 357.368645,549 357.368645,549 C357.368645,549 355.427467,596.794753 355.019659,601.418627 C354.477647,607.562854 365.31869,608.906639 365.861102,601.418627 C366.403114,593.930191 368.209689,559.56055 368.209689,559.56055 L371.643099,559.56055 C371.643099,559.56055 373.088598,594.50616 374.172622,601.226355 C375.256647,607.94655 385.917552,607.754702 385.556077,600.458539" id="Fill-33" fill="#006B2B"></path>
            <path d="M387,554.692864 C387,554.692864 387.903487,561.605332 391.517434,559.877003 C395.130982,558.149098 394.227895,553.156807 394.227895,553.156807 C391.15596,552.388567 387,554.692864 387,554.692864" id="Fill-34" fill="#006B2B"></path>
            <path d="M352.327883,554.692864 C352.327883,554.692864 348.172323,552.388567 345.100387,553.156807 C345.100387,553.156807 344.196901,558.149098 347.810848,559.877003 C351.424396,561.605332 352.327883,554.692864 352.327883,554.692864" id="Fill-35" fill="#006B2B"></path>
            <path d="M186.492058,394.689669 L185.950045,414.658407 C185.950045,414.658407 203.296434,416.578584 211.788491,414.658407 L211.969428,393.537733 L213.595465,396.801694 L220.461885,394.689669 C220.461885,394.689669 216.6674,383.169031 213.776402,379.90507 C210.885004,376.641108 205.283945,378.560861 205.283945,378.560861 C205.283945,378.560861 202.392947,386.433417 199.140474,389.697379 C199.140474,389.697379 193.539015,384.321392 192.635529,378.369013 C192.635529,378.369013 189.563993,377.217076 186.672995,379.329101 C183.781996,381.441126 178.903487,390.273347 178,394.689669 L184.324009,397.569935 L186.492058,394.689669" id="Fill-4" fill="#006B2B"></path>
            <path d="M178.493752,426.569199 C182.468774,425.993231 181.926762,422.921117 181.926762,417.736979 C181.926762,412.55284 183.552799,399.496145 183.552799,399.496145 L177.048253,397 C173.79578,410.056695 174.518729,427.145167 178.493752,426.569199" id="Fill-5" fill="#006B2B"></path>
            <path d="M216.626037,417.736979 C216.626037,422.921117 216.084024,425.993231 220.059047,426.569199 C224.034469,427.145167 224.757019,410.056695 221.504546,397 L215,399.496145 C215,399.496145 216.626037,412.55284 216.626037,417.736979" id="Fill-6" fill="#006B2B"></path>
            <path d="M199.841443,375.040852 C205.828741,375.040852 210.682886,369.883029 210.682886,363.520638 C210.682886,357.157823 205.828741,352 199.841443,352 C193.853746,352 189,357.157823 189,363.520638 C189,369.883029 193.853746,375.040852 199.841443,375.040852" id="Fill-22" fill="#006B2B"></path>
            <path d="M211.548907,417 C202.3335,419.880266 186.252473,417 186.252473,417 L183,445.417263 L197.816466,446.185079 L199.081427,432.936536 L201.068938,446.377351 L215.523929,445.033142 L211.548907,417" id="Fill-64" fill="#006B2B"></path>
            <path d="M215.286942,468.697067 C214.925467,463.512929 214.021981,447 214.021981,447 L203,447.960089 C203,447.960089 203.542012,464.280745 204.084024,469.464883 C204.626037,474.649022 215.648417,473.881206 215.286942,468.697067" id="Fill-65" fill="#006B2B"></path>
            <path d="M195.211216,469.464883 C195.753229,464.280745 196.295241,447.960089 196.295241,447.960089 L185.27326,447 C185.27326,447 184.370173,463.512929 184.008698,468.697067 C183.647224,473.881206 194.669204,474.649022 195.211216,469.464883" id="Fill-66" fill="#006B2B"></path>
            <g id="Group" transform="translate(391.000000, 250.000000)" fill="#006B2B">
                <path d="M12.0402383,42.6896692 L11.4982261,62.6584074 C11.4982261,62.6584074 28.8446146,64.5785845 37.3366721,62.6584074 L37.5176091,41.5377328 L39.1436458,44.8016943 L46.0100661,42.6896692 C46.0100661,42.6896692 42.215581,31.1690312 39.3245829,27.9050697 C36.4331853,24.6411082 30.8321259,26.5608608 30.8321259,26.5608608 C30.8321259,26.5608608 27.9411277,34.4334171 24.6886549,37.6973786 C24.6886549,37.6973786 19.0871962,32.3213921 18.1837093,26.3690129 C18.1837093,26.3690129 15.1121735,25.2170764 12.2211753,27.3291014 C9.33017714,29.4411265 4.45166763,38.2733468 3.54818077,42.6896692 L9.87218937,45.5699349 L12.0402383,42.6896692" id="Fill-4"></path>
                <path d="M4.04193248,74.5691991 C8.01695513,73.9932309 7.4749429,70.9211173 7.4749429,65.7369788 C7.4749429,60.5528402 9.1009796,47.4961453 9.1009796,47.4961453 L2.59643339,45 C-0.656039421,58.0566949 0.066909835,75.1451674 4.04193248,74.5691991" id="Fill-5"></path>
                <path d="M42.1742175,65.7369788 C42.1742175,70.9211173 41.6322052,73.9932309 45.6072279,74.5691991 C49.58265,75.1451674 50.3051998,58.0566949 47.052727,45 L40.5481808,47.4961453 C40.5481808,47.4961453 42.1742175,60.5528402 42.1742175,65.7369788" id="Fill-6"></path>
                <path d="M25.3896237,23.0408517 C31.3769217,23.0408517 36.2310666,17.8830286 36.2310666,11.5206381 C36.2310666,5.15782316 31.3769217,0 25.3896237,0 C19.4019263,0 14.5481808,5.15782316 14.5481808,11.5206381 C14.5481808,17.8830286 19.4019263,23.0408517 25.3896237,23.0408517" id="Fill-22"></path>
                <path d="M37.0970874,65 C27.8816812,67.8802656 11.8006536,65 11.8006536,65 L8.54818077,93.4172627 L23.3646463,94.1850788 L24.6296078,80.936536 L26.6171191,94.3773512 L41.0721101,93.0331424 L37.0970874,65" id="Fill-64"></path>
                <path d="M40.8351228,116.697067 C40.4736481,111.512929 39.5701613,95 39.5701613,95 L28.5481808,95.9600885 C28.5481808,95.9600885 29.090193,112.280745 29.6322052,117.464883 C30.1742175,122.649022 41.1965974,121.881206 40.8351228,116.697067" id="Fill-65"></path>
                <path d="M20.7593973,117.464883 C21.3014095,112.280745 21.8434217,95.9600885 21.8434217,95.9600885 L10.8214412,95 C10.8214412,95 9.91835378,111.512929 9.55687915,116.697067 C9.19540452,121.881206 20.217385,122.649022 20.7593973,117.464883" id="Fill-66"></path>
            </g>
            <path d="M310.209162,216.697067 C315.847367,216.697067 320.417924,211.840174 320.417924,205.848746 C320.417924,199.857318 315.847367,195 310.209162,195 C304.570957,195 300,199.857318 300,205.848746 C300,211.840174 304.570957,216.697067 310.209162,216.697067" id="Fill-23" fill="#006B2B"></path>
            <path d="M295.522897,258.897565 C295.522897,255.249483 295.34196,242.192788 295.883972,235.472593 C296.426384,228.752397 299.136445,230.672575 299.136445,230.672575 C300.220869,228.368277 301.123957,218 301.123957,218 C298.232958,218.575968 293.354449,222.22405 291.728412,228.752397 C290.101976,235.280745 289.379426,251.601401 290.643988,257.16966 C291.90895,262.737919 295.522897,262.545647 295.522897,258.897565" id="Fill-67" fill="#006B2B"></path>
            <path d="M320.987511,230.672575 C320.987511,230.672575 323.697972,228.752397 324.239984,235.472593 C324.781996,242.192788 324.601459,255.249483 324.601459,258.897565 C324.601459,262.545647 328.215007,262.737919 329.479968,257.16966 C330.74493,251.601401 330.021981,235.280745 328.395944,228.752397 C326.769508,222.22405 321.890998,218.575968 319,218 C319,218 319.903487,228.368277 320.987511,230.672575" id="Fill-68" fill="#006B2B"></path>
            <path d="M322.48946,254.557384 C322.48946,254.557384 319.598462,244.956923 319.598462,242.844898 C319.598462,240.732873 322.127985,236.124703 320.501949,231.516532 C320.501949,231.516532 317.791488,221.531951 317.972425,218.65211 C317.972425,218.65211 316.526926,218.26799 315.623439,218.459838 C315.623439,218.459838 314.539415,226.140122 310.925467,227.676178 C307.31152,229.212235 305.504946,218.075717 305.504946,218.075717 C305.504946,218.075717 303.87851,217.692021 302.975023,218.65211 C302.975023,218.65211 303.15596,228.828539 300.806974,232.860741 C300.806974,232.860741 299.180538,239.196816 300.806974,243.037171 C302.43301,246.8771 300.626037,251.677543 299,254.557384 C299,254.557384 312.551504,259.165555 322.48946,254.557384" id="Fill-69" fill="#006B2B"></path>
            <path d="M321.476971,257 C311.90049,261.416322 298.348986,257 298.348986,257 L296,270.056695 L308.648417,271.592752 L309.551504,267.752397 L311.17794,271.976448 L323.103408,269.864422 L321.476971,257" id="Fill-70" fill="#006B2B"></path>
            <path d="M305.216345,305.601401 C305.216345,300.993231 306.480907,273.343784 306.480907,273.343784 L297.627375,272 C297.627375,272 296.723888,299.264902 297.085363,304.065344 C297.446438,308.865363 305.216345,310.209572 305.216345,305.601401" id="Fill-71" fill="#006B2B"></path>
            <path d="M321.853932,272 L313,273.343784 C313,273.343784 314.264961,300.993231 314.264961,305.601401 C314.264961,310.209572 322.034469,308.865363 322.395944,304.065344 C322.757418,299.264902 321.853932,272 321.853932,272" id="Fill-72" fill="#006B2B"></path>
            <path d="M214.208762,128.697067 C219.846968,128.697067 224.417525,123.840174 224.417525,117.848746 C224.417525,111.857318 219.846968,107 214.208762,107 C208.570557,107 204,111.857318 204,117.848746 C204,123.840174 208.570557,128.697067 214.208762,128.697067" id="Fill-52" fill="#006B2B"></path>
            <path d="M200.697972,168 L196,168 C196,168 196,171.648082 198.529923,171.264386 C201.059447,170.880266 200.697972,168 200.697972,168" id="Fill-53" fill="#006B2B"></path>
            <path d="M231,168 C231,168 231,171.648082 233.529524,171.264386 C236.059447,170.880266 235.697972,168 235.697972,168 L231,168" id="Fill-54" fill="#006B2B"></path>
            <path d="M206,216.377351 C206,220.601401 214.130982,221.56149 214.130982,216.377351 C214.130982,211.193213 214.130982,187 214.130982,187 L206.542012,187 C206.542012,187 206,212.152877 206,216.377351" id="Fill-55" fill="#006B2B"></path>
            <path d="M216,187 C216,187 216,211.193213 216,216.377351 C216,221.56149 224.130982,220.601401 224.130982,216.377351 C224.130982,212.152877 223.58897,187 223.58897,187 L216,187" id="Fill-56" fill="#006B2B"></path>
            <path d="M200.892709,166.513131 C200.711772,152.496348 204.867732,143.088159 204.867732,143.088159 L204.87572,143.105137 C205.15092,139.999917 204.880114,136.587825 204.550593,134 C195.27807,141.958294 196.0138,166.513131 196.0138,166.513131 L200.892709,166.513131" id="Fill-73" fill="#006B2B"></path>
            <path d="M225.227211,133 C224.964793,135.966427 224.807821,140.12002 225.459673,143.607238 C230.248713,149.952651 230.407682,166.319147 230.407682,166.319147 L235.466729,166.510995 C235.466729,166.510995 234.924717,148.462434 230.407682,139.053821 C228.930229,135.977038 227.066538,134.116708 225.227211,133" id="Fill-74" fill="#006B2B"></path>
            <path d="M224.266584,144.701847 C223.919489,141.193831 223.579583,136.084395 224.020142,132.266536 C220.867125,131.006367 219.068938,131 219.068938,131 C219.068938,137.144227 215.816466,137.144227 215.816466,137.144227 C211.841443,137.336075 212.202918,131.255939 212.202918,131.255939 C209.96497,131.103988 208.043363,131.603981 206.388968,132.577652 C207.050806,136.809767 206.823536,142.661977 206.596666,146.110147 C210.019291,155.08116 206.865076,157.887148 204.43341,164.089099 C201.722949,171.001567 201,185.210198 201,185.210198 L229.910381,185.210198 C229.729444,164.47322 225.392947,161.016986 224.128385,156.02512 C223.273627,152.651652 223.821231,147.615219 224.266584,144.701847" id="Fill-75" fill="#006B2B"></path>
            <path d="M413.208762,399.697067 C418.846968,399.697067 423.417525,394.840174 423.417525,388.848746 C423.417525,382.857318 418.846968,378 413.208762,378 C407.570557,378 403,382.857318 403,388.848746 C403,394.840174 407.570557,399.697067 413.208762,399.697067" id="Fill-52" fill="#006B2B"></path>
            <path d="M399.697972,439 L395,439 C395,439 395,442.648082 397.529923,442.264386 C400.059447,441.880266 399.697972,439 399.697972,439" id="Fill-53" fill="#006B2B"></path>
            <path d="M430,439 C430,439 430,442.648082 432.529524,442.264386 C435.059447,441.880266 434.697972,439 434.697972,439 L430,439" id="Fill-54" fill="#006B2B"></path>
            <path d="M405,487.377351 C405,491.601401 413.130982,492.56149 413.130982,487.377351 C413.130982,482.193213 413.130982,458 413.130982,458 L405.542012,458 C405.542012,458 405,483.152877 405,487.377351" id="Fill-55" fill="#006B2B"></path>
            <path d="M415,458 C415,458 415,482.193213 415,487.377351 C415,492.56149 423.130982,491.601401 423.130982,487.377351 C423.130982,483.152877 422.58897,458 422.58897,458 L415,458" id="Fill-56" fill="#006B2B"></path>
            <path d="M399.892709,437.513131 C399.711772,423.496348 403.867732,414.088159 403.867732,414.088159 L403.87572,414.105137 C404.15092,410.999917 403.880114,407.587825 403.550593,405 C394.27807,412.958294 395.0138,437.513131 395.0138,437.513131 L399.892709,437.513131" id="Fill-73" fill="#006B2B"></path>
            <path d="M424.227211,404 C423.964793,406.966427 423.807821,411.12002 424.459673,414.607238 C429.248713,420.952651 429.407682,437.319147 429.407682,437.319147 L434.466729,437.510995 C434.466729,437.510995 433.924717,419.462434 429.407682,410.053821 C427.930229,406.977038 426.066538,405.116708 424.227211,404" id="Fill-74" fill="#006B2B"></path>
            <path d="M423.266584,415.701847 C422.919489,412.193831 422.579583,407.084395 423.020142,403.266536 C419.867125,402.006367 418.068938,402 418.068938,402 C418.068938,408.144227 414.816466,408.144227 414.816466,408.144227 C410.841443,408.336075 411.202918,402.255939 411.202918,402.255939 C408.96497,402.103988 407.043363,402.603981 405.388968,403.577652 C406.050806,407.809767 405.823536,413.661977 405.596666,417.110147 C409.019291,426.08116 405.865076,428.887148 403.43341,435.089099 C400.722949,442.001567 400,456.210198 400,456.210198 L428.910381,456.210198 C428.729444,435.47322 424.392947,432.016986 423.128385,427.02512 C422.273627,423.651652 422.821231,418.615219 423.266584,415.701847" id="Fill-75" fill="#006B2B"></path>
            <path d="M168.492936,277.697067 C174.131141,277.697067 178.701698,272.840174 178.701698,266.848746 C178.701698,260.857318 174.131141,256 168.492936,256 C162.85473,256 158.284173,260.857318 158.284173,266.848746 C158.284173,272.840174 162.85473,277.697067 168.492936,277.697067" id="Fill-52" fill="#006B2B"></path>
            <path d="M154.982145,317 L150.284173,317 C150.284173,317 150.284173,320.648082 152.814096,320.264386 C155.34362,319.880266 154.982145,317 154.982145,317" id="Fill-53" fill="#006B2B"></path>
            <path d="M185.284173,317 C185.284173,317 185.284173,320.648082 187.813697,320.264386 C190.34362,319.880266 189.982145,317 189.982145,317 L185.284173,317" id="Fill-54" fill="#006B2B"></path>
            <path d="M160.284173,365.377351 C160.284173,369.601401 168.415155,370.56149 168.415155,365.377351 C168.415155,360.193213 168.415155,336 168.415155,336 L160.826185,336 C160.826185,336 160.284173,361.152877 160.284173,365.377351" id="Fill-55" fill="#006B2B"></path>
            <path d="M170.284173,336 C170.284173,336 170.284173,360.193213 170.284173,365.377351 C170.284173,370.56149 178.415155,369.601401 178.415155,365.377351 C178.415155,361.152877 177.873143,336 177.873143,336 L170.284173,336" id="Fill-56" fill="#006B2B"></path>
            <path d="M155.176882,315.513131 C154.995945,301.496348 159.151905,292.088159 159.151905,292.088159 L159.159893,292.105137 C159.435093,288.999917 159.164287,285.587825 158.834766,283 C149.562243,290.958294 150.297973,315.513131 150.297973,315.513131 L155.176882,315.513131" id="Fill-73" fill="#006B2B"></path>
            <path d="M179.511384,282 C179.248966,284.966427 179.091994,289.12002 179.743847,292.607238 C184.532886,298.952651 184.691855,315.319147 184.691855,315.319147 L189.750902,315.510995 C189.750902,315.510995 189.20889,297.462434 184.691855,288.053821 C183.214402,284.977038 181.350711,283.116708 179.511384,282" id="Fill-74" fill="#006B2B"></path>
            <path d="M178.550757,293.701847 C178.203662,290.193831 177.863756,285.084395 178.304315,281.266536 C175.151298,280.006367 173.353111,280 173.353111,280 C173.353111,286.144227 170.100639,286.144227 170.100639,286.144227 C166.125616,286.336075 166.487091,280.255939 166.487091,280.255939 C164.249143,280.103988 162.327536,280.603981 160.673141,281.577652 C161.334979,285.809767 161.107709,291.661977 160.880839,295.110147 C164.303464,304.08116 161.149249,306.887148 158.717583,313.089099 C156.007122,320.001567 155.284173,334.210198 155.284173,334.210198 L184.194554,334.210198 C184.013617,313.47322 179.67712,310.016986 178.412558,305.02512 C177.5578,301.651652 178.105404,296.615219 178.550757,293.701847" id="Fill-75" fill="#006B2B"></path>
            <path d="M161.492457,166.689669 L160.950445,186.658407 C160.950445,186.658407 178.296434,188.578584 186.788891,186.658407 L186.969428,165.537733 L188.595864,168.801694 L195.461885,166.689669 C195.461885,166.689669 191.6674,155.169031 188.776402,151.90507 C185.885404,148.641108 180.283945,150.560861 180.283945,150.560861 C180.283945,150.560861 177.392947,158.433417 174.140474,161.697379 C174.140474,161.697379 168.539415,156.321392 167.635928,150.369013 C167.635928,150.369013 164.563993,149.217076 161.672995,151.329101 C158.781996,153.441126 153.903487,162.273347 153,166.689669 L159.324009,169.569935 L161.492457,166.689669" id="Fill-1" fill="#006B2B"></path>
            <path d="M153.493752,198.569199 C157.469174,197.993231 156.926762,194.921117 156.926762,189.736979 C156.926762,184.55284 158.553198,171.496145 158.553198,171.496145 L152.048253,169 C148.79578,182.056695 149.518729,199.145167 153.493752,198.569199" id="Fill-2" fill="#006B2B"></path>
            <path d="M189.545643,241.066779 C189.670262,235.641557 188.422077,212.894419 187.633622,199.27364 C182.187937,196.987594 180.374972,192.199036 179.82617,190.079795 C175.854343,190.433356 172.046277,190.292441 168.929607,190 C168.397181,192.113298 166.553461,197.139969 160.792634,199.400124 C160.058501,213.355788 158.884207,236.634752 159.009226,240.490386 C159.190163,246.058645 170.754155,247.978822 170.573218,241.642747 C170.392681,235.306247 172.380192,199.016853 172.380192,199.016853 L176.355614,199.016853 C176.355614,199.016853 177.981651,234.538431 178.523663,240.682658 C179.065675,246.826885 189.365106,248.93891 189.545643,241.066779" id="Fill-9" fill="#006B2B"></path>
            <path d="M190,171.496145 C190,171.496145 191.626037,184.55284 191.626037,189.736979 C191.626037,194.921117 191.084024,197.993231 195.059447,198.569199 C199.034469,199.145167 199.757019,182.056695 196.504946,169 L190,171.496145" id="Fill-3" fill="#006B2B"></path>
            <path d="M187.965729,196.018564 C187.683739,191.194777 187.488822,188 187.488822,188 C185.674659,188.488958 183.828542,188.828936 182,189.058135 C182.996951,192.19731 185.798879,194.578007 187.965729,196.018564" id="Fill-7" fill="#006B2B"></path>
            <path d="M161.442557,188 C161.442557,188 161.26162,191.297068 161,196.232059 C163.220373,194.808479 166.295104,192.319125 167.319216,188.979188 C163.755595,188.555595 161.442557,188 161.442557,188" id="Fill-8" fill="#006B2B"></path>
            <path d="M173.841443,147.040852 C179.828741,147.040852 184.682886,141.883029 184.682886,135.520638 C184.682886,129.157823 179.828741,124 173.841443,124 C167.853746,124 163,129.157823 163,135.520638 C163,141.883029 167.853746,147.040852 173.841443,147.040852" id="Fill-13" fill="#006B2B"></path>
            <path d="M268.841443,102 C262.853746,102 258,107.157823 258,113.520638 C258,119.883029 262.853746,125.040852 268.841443,125.040852 C274.828741,125.040852 279.682486,119.883029 279.682486,113.520638 C279.682486,107.157823 274.828741,102 268.841443,102" id="Fill-36" fill="#006B2B"></path>
            <path d="M257.106404,143.330871 L257.106404,163.875577 C268.308922,166.563995 282.763913,163.875577 282.763913,163.875577 L282.763913,142.754903 C286.016386,147.939041 287.461885,169.636108 287.461885,169.636108 C289.268859,167.907779 294.327906,168.2919 294.327906,168.2919 C295.050855,164.835666 292.882806,144.290959 288.184835,135.074619 C283.486863,125.857854 275.897893,128.290333 275.897893,128.290333 C274.873781,133.922258 268.670397,133.666319 268.670397,133.666319 C264.695374,133.794501 263.610951,128.546271 263.610951,128.546271 C263.610951,128.546271 255.841443,126.817942 250.601459,137.186644 C245.743719,146.798989 245,169.059716 245,169.059716 C246.806974,168.483748 252.950445,170.019804 252.950445,170.019804 C252.408432,147.363073 257.106404,143.330871 257.106404,143.330871" id="Fill-37" fill="#006B2B"></path>
            <path d="M281.845644,166 C266.487167,169.648082 256.368673,166 256.368673,166 C256.368673,166 254.427494,213.794753 254.019687,218.418203 C253.477275,224.562854 264.318718,225.906639 264.860731,218.418203 C265.402743,210.930191 267.209716,176.56055 267.209716,176.56055 L270.642727,176.56055 C270.642727,176.56055 272.088226,211.50616 273.17265,218.226355 C274.256674,224.94655 284.91718,224.754702 284.556105,217.458539 C284.19463,210.161951 281.845644,166 281.845644,166" id="Fill-38" fill="#006B2B"></path>
            <path d="M245.100387,171.156807 C245.100387,171.156807 244.196901,176.149098 247.810848,177.877003 C251.424396,179.605332 252.327883,172.692864 252.327883,172.692864 C252.327883,172.692864 248.171923,170.388567 245.100387,171.156807" id="Fill-40" fill="#006B2B"></path>
            <path d="M287,172.692864 C287,172.692864 287.903487,179.605332 291.517434,177.877003 C295.130982,176.149098 294.227495,171.156807 294.227495,171.156807 C291.15596,170.388567 287,172.692864 287,172.692864" id="Fill-39" fill="#006B2B"></path>
            <path d="M464.841443,170 C458.853746,170 454,175.157823 454,181.520638 C454,187.883029 458.853746,193.040852 464.841443,193.040852 C470.828741,193.040852 475.682486,187.883029 475.682486,181.520638 C475.682486,175.157823 470.828741,170 464.841443,170" id="Fill-36" fill="#006B2B"></path>
            <path d="M453.106404,211.330871 L453.106404,231.875577 C464.308922,234.563995 478.763913,231.875577 478.763913,231.875577 L478.763913,210.754903 C482.016386,215.939041 483.461885,237.636108 483.461885,237.636108 C485.268859,235.907779 490.327906,236.2919 490.327906,236.2919 C491.050855,232.835666 488.882806,212.290959 484.184835,203.074619 C479.486863,193.857854 471.897893,196.290333 471.897893,196.290333 C470.873781,201.922258 464.670397,201.666319 464.670397,201.666319 C460.695374,201.794501 459.610951,196.546271 459.610951,196.546271 C459.610951,196.546271 451.841443,194.817942 446.601459,205.186644 C441.743719,214.798989 441,237.059716 441,237.059716 C442.806974,236.483748 448.950445,238.019804 448.950445,238.019804 C448.408432,215.363073 453.106404,211.330871 453.106404,211.330871" id="Fill-37" fill="#006B2B"></path>
            <path d="M477.845644,234 C462.487167,237.648082 452.368673,234 452.368673,234 C452.368673,234 450.427494,281.794753 450.019687,286.418203 C449.477275,292.562854 460.318718,293.906639 460.860731,286.418203 C461.402743,278.930191 463.209716,244.56055 463.209716,244.56055 L466.642727,244.56055 C466.642727,244.56055 468.088226,279.50616 469.17265,286.226355 C470.256674,292.94655 480.91718,292.754702 480.556105,285.458539 C480.19463,278.161951 477.845644,234 477.845644,234" id="Fill-38" fill="#006B2B"></path>
            <path d="M441.100387,239.156807 C441.100387,239.156807 440.196901,244.149098 443.810848,245.877003 C447.424396,247.605332 448.327883,240.692864 448.327883,240.692864 C448.327883,240.692864 444.171923,238.388567 441.100387,239.156807" id="Fill-40" fill="#006B2B"></path>
            <path d="M367.841443,98 C361.853746,98 357,103.157823 357,109.520638 C357,115.883029 361.853746,121.040852 367.841443,121.040852 C373.828741,121.040852 378.682486,115.883029 378.682486,109.520638 C378.682486,103.157823 373.828741,98 367.841443,98" id="Fill-36" fill="#006B2B"></path>
            <path d="M356.106404,139.330871 L356.106404,159.875577 C367.308922,162.563995 381.763913,159.875577 381.763913,159.875577 L381.763913,138.754903 C385.016386,143.939041 386.461885,165.636108 386.461885,165.636108 C388.268859,163.907779 393.327906,164.2919 393.327906,164.2919 C394.050855,160.835666 391.882806,140.290959 387.184835,131.074619 C382.486863,121.857854 374.897893,124.290333 374.897893,124.290333 C373.873781,129.922258 367.670397,129.666319 367.670397,129.666319 C363.695374,129.794501 362.610951,124.546271 362.610951,124.546271 C362.610951,124.546271 354.841443,122.817942 349.601459,133.186644 C344.743719,142.798989 344,165.059716 344,165.059716 C345.806974,164.483748 351.950445,166.019804 351.950445,166.019804 C351.408432,143.363073 356.106404,139.330871 356.106404,139.330871" id="Fill-37" fill="#006B2B"></path>
            <path d="M380.845644,162 C365.487167,165.648082 355.368673,162 355.368673,162 C355.368673,162 353.427494,209.794753 353.019687,214.418203 C352.477275,220.562854 363.318718,221.906639 363.860731,214.418203 C364.402743,206.930191 366.209716,172.56055 366.209716,172.56055 L369.642727,172.56055 C369.642727,172.56055 371.088226,207.50616 372.17265,214.226355 C373.256674,220.94655 383.91718,220.754702 383.556105,213.458539 C383.19463,206.161951 380.845644,162 380.845644,162" id="Fill-38" fill="#006B2B"></path>
            <path d="M344.100387,167.156807 C344.100387,167.156807 343.196901,172.149098 346.810848,173.877003 C350.424396,175.605332 351.327883,168.692864 351.327883,168.692864 C351.327883,168.692864 347.171923,166.388567 344.100387,167.156807" id="Fill-40" fill="#006B2B"></path>
            <path d="M386,168.692864 C386,168.692864 386.903487,175.605332 390.517434,173.877003 C394.130982,172.149098 393.227495,167.156807 393.227495,167.156807 C390.15596,166.388567 386,168.692864 386,168.692864" id="Fill-39" fill="#006B2B"></path>
            <path d="M309.109337,460 C303.12164,460 298.267895,465.157823 298.267895,471.520638 C298.267895,477.883029 303.12164,483.040852 309.109337,483.040852 C315.096635,483.040852 319.950381,477.883029 319.950381,471.520638 C319.950381,465.157823 315.096635,460 309.109337,460" id="Fill-36" fill="#006B2B"></path>
            <path d="M297.374299,501.330871 L297.374299,521.875577 C308.576817,524.563995 323.031808,521.875577 323.031808,521.875577 L323.031808,500.754903 C326.284281,505.939041 327.72978,527.636108 327.72978,527.636108 C329.536754,525.907779 334.595801,526.2919 334.595801,526.2919 C335.31875,522.835666 333.150701,502.290959 328.452729,493.074619 C323.754757,483.857854 316.165787,486.290333 316.165787,486.290333 C315.141676,491.922258 308.938292,491.666319 308.938292,491.666319 C304.963269,491.794501 303.878845,486.546271 303.878845,486.546271 C303.878845,486.546271 296.109337,484.817942 290.869353,495.186644 C286.011614,504.798989 285.267895,527.059716 285.267895,527.059716 C287.074868,526.483748 293.218339,528.019804 293.218339,528.019804 C292.676327,505.363073 297.374299,501.330871 297.374299,501.330871" id="Fill-37" fill="#006B2B"></path>
            <path d="M322.113539,524 C306.755061,527.648082 296.636568,524 296.636568,524 C296.636568,524 294.695389,571.794753 294.287582,576.418203 C293.74517,582.562854 304.586613,583.906639 305.128625,576.418203 C305.670637,568.930191 307.477611,534.56055 307.477611,534.56055 L310.910621,534.56055 C310.910621,534.56055 312.356121,569.50616 313.440544,576.226355 C314.524569,582.94655 325.185075,582.754702 324.824,575.458539 C324.462525,568.161951 322.113539,524 322.113539,524" id="Fill-38" fill="#006B2B"></path>
            <path d="M309.109337,460 C303.12164,460 298.267895,465.157823 298.267895,471.520638 C298.267895,477.883029 303.12164,483.040852 309.109337,483.040852 C315.096635,483.040852 319.950381,477.883029 319.950381,471.520638 C319.950381,465.157823 315.096635,460 309.109337,460" id="Fill-36" fill="#006B2B"></path>
            <path d="M297.374299,501.330871 L297.374299,521.875577 C308.576817,524.563995 323.031808,521.875577 323.031808,521.875577 L323.031808,500.754903 C326.284281,505.939041 327.72978,527.636108 327.72978,527.636108 C329.536754,525.907779 334.595801,526.2919 334.595801,526.2919 C335.31875,522.835666 333.150701,502.290959 328.452729,493.074619 C323.754757,483.857854 316.165787,486.290333 316.165787,486.290333 C315.141676,491.922258 308.938292,491.666319 308.938292,491.666319 C304.963269,491.794501 303.878845,486.546271 303.878845,486.546271 C303.878845,486.546271 296.109337,484.817942 290.869353,495.186644 C286.011614,504.798989 285.267895,527.059716 285.267895,527.059716 C287.074868,526.483748 293.218339,528.019804 293.218339,528.019804 C292.676327,505.363073 297.374299,501.330871 297.374299,501.330871" id="Fill-37" fill="#006B2B"></path>
            <path d="M322.113539,524 C306.755061,527.648082 296.636568,524 296.636568,524 C296.636568,524 294.695389,571.794753 294.287582,576.418203 C293.74517,582.562854 304.586613,583.906639 305.128625,576.418203 C305.670637,568.930191 307.477611,534.56055 307.477611,534.56055 L310.910621,534.56055 C310.910621,534.56055 312.356121,569.50616 313.440544,576.226355 C314.524569,582.94655 325.185075,582.754702 324.824,575.458539 C324.462525,568.161951 322.113539,524 322.113539,524" id="Fill-38" fill="#006B2B"></path>
            <path d="M285.368282,529.156807 C285.368282,529.156807 284.464795,534.149098 288.078743,535.877003 C291.692291,537.605332 292.595777,530.692864 292.595777,530.692864 C292.595777,530.692864 288.439818,528.388567 285.368282,529.156807" id="Fill-40" fill="#006B2B"></path>
            <path d="M327.267895,530.692864 C327.267895,530.692864 328.171381,537.605332 331.785329,535.877003 C335.398877,534.149098 334.49539,529.156807 334.49539,529.156807 C331.423854,528.388567 327.267895,530.692864 327.267895,530.692864" id="Fill-39" fill="#006B2B"></path>
            <path d="M309.841443,323 C303.853746,323 299,328.157823 299,334.520638 C299,340.883029 303.853746,346.040852 309.841443,346.040852 C315.828741,346.040852 320.682486,340.883029 320.682486,334.520638 C320.682486,328.157823 315.828741,323 309.841443,323" id="Fill-36" fill="#006B2B"></path>
            <path d="M298.106404,364.330871 L298.106404,384.875577 C309.308922,387.563995 323.763913,384.875577 323.763913,384.875577 L323.763913,363.754903 C327.016386,368.939041 328.461885,390.636108 328.461885,390.636108 C330.268859,388.907779 335.327906,389.2919 335.327906,389.2919 C336.050855,385.835666 333.882806,365.290959 329.184835,356.074619 C324.486863,346.857854 316.897893,349.290333 316.897893,349.290333 C315.873781,354.922258 309.670397,354.666319 309.670397,354.666319 C305.695374,354.794501 304.610951,349.546271 304.610951,349.546271 C304.610951,349.546271 296.841443,347.817942 291.601459,358.186644 C286.743719,367.798989 286,390.059716 286,390.059716 C287.806974,389.483748 293.950445,391.019804 293.950445,391.019804 C293.408432,368.363073 298.106404,364.330871 298.106404,364.330871" id="Fill-37" fill="#006B2B"></path>
            <path d="M322.845644,387 C307.487167,390.648082 297.368673,387 297.368673,387 C297.368673,387 295.427494,434.794753 295.019687,439.418203 C294.477275,445.562854 305.318718,446.906639 305.860731,439.418203 C306.402743,431.930191 308.209716,397.56055 308.209716,397.56055 L311.642727,397.56055 C311.642727,397.56055 313.088226,432.50616 314.17265,439.226355 C315.256674,445.94655 325.91718,445.754702 325.556105,438.458539 C325.19463,431.161951 322.845644,387 322.845644,387" id="Fill-38" fill="#006B2B"></path>
            <path d="M286.100387,392.156807 C286.100387,392.156807 285.196901,397.149098 288.810848,398.877003 C292.424396,400.605332 293.327883,393.692864 293.327883,393.692864 C293.327883,393.692864 289.171923,391.388567 286.100387,392.156807" id="Fill-40" fill="#006B2B"></path>
            <path d="M328,393.692864 C328,393.692864 328.903487,400.605332 332.517434,398.877003 C336.130982,397.149098 335.227495,392.156807 335.227495,392.156807 C332.15596,391.388567 328,393.692864 328,393.692864" id="Fill-39" fill="#006B2B"></path>
            <path d="M418.209162,138.697067 C423.847367,138.697067 428.417924,133.840174 428.417924,127.848746 C428.417924,121.857318 423.847367,117 418.209162,117 C412.570957,117 408,121.857318 408,127.848746 C408,133.840174 412.570957,138.697067 418.209162,138.697067" id="Fill-25" fill="#006B2B"></path>
            <path d="M404.892414,175.972605 C404.711477,161.955822 408.867436,152.547633 408.867436,152.547633 C414.468895,164.260119 410.854948,166.948113 408.144487,173.86058 C405.434426,180.772624 404.711477,194.981255 404.711477,194.981255 L433.621858,194.981255 C433.440921,174.244701 429.104424,170.788467 427.839862,165.796176 C426.5749,160.803885 428.381874,152.163513 428.381874,152.163513 C434.344408,157.155804 434.525345,176.164453 434.525345,176.164453 L439.584392,176.356726 C439.584392,176.356726 439.04238,158.30774 434.525345,148.899551 C430.007911,139.490938 421.876928,141.411115 421.876928,141.411115 C422.418941,151.203424 419.166867,156.963956 419.166867,156.963956 C416.636944,152.547633 415.914394,141.026995 415.914394,141.026995 C398.92948,139.875059 400.013904,175.972605 400.013904,175.972605 L404.892414,175.972605" id="Fill-41" fill="#006B2B"></path>
            <path d="M400,178 C400,178 400,181.648506 402.529524,181.264386 C405.059047,180.880266 404.697572,178 404.697572,178 L400,178" id="Fill-42" fill="#006B2B"></path>
            <path d="M436.529524,181.264386 C439.059447,180.880266 438.697972,178 438.697972,178 L434,178 C434,178 434,181.648506 436.529524,181.264386" id="Fill-43" fill="#006B2B"></path>
            <path d="M418.130982,226.377351 C418.130982,221.193213 418.130982,197 418.130982,197 L410.542012,197 C410.542012,197 410,222.153301 410,226.377351 C410,230.601401 418.130982,231.56149 418.130982,226.377351" id="Fill-44" fill="#006B2B"></path>
            <path d="M428.130982,226.377351 C428.130982,222.153301 427.58897,197 427.58897,197 L420,197 C420,197 420,221.193213 420,226.377351 C420,231.56149 428.130982,230.601401 428.130982,226.377351" id="Fill-45" fill="#006B2B"></path>
            <path d="M129.209162,190.697067 C134.847367,190.697067 139.417924,185.840174 139.417924,179.848746 C139.417924,173.857318 134.847367,169 129.209162,169 C123.570957,169 119,173.857318 119,179.848746 C119,185.840174 123.570957,190.697067 129.209162,190.697067" id="Fill-25" fill="#006B2B"></path>
            <path d="M115.892414,227.972605 C115.711477,213.955822 119.867436,204.547633 119.867436,204.547633 C125.468895,216.260119 121.854948,218.948113 119.144487,225.86058 C116.434426,232.772624 115.711477,246.981255 115.711477,246.981255 L144.621858,246.981255 C144.440921,226.244701 140.104424,222.788467 138.839862,217.796176 C137.5749,212.803885 139.381874,204.163513 139.381874,204.163513 C145.344408,209.155804 145.525345,228.164453 145.525345,228.164453 L150.584392,228.356726 C150.584392,228.356726 150.04238,210.30774 145.525345,200.899551 C141.007911,191.490938 132.876928,193.411115 132.876928,193.411115 C133.418941,203.203424 130.166867,208.963956 130.166867,208.963956 C127.636944,204.547633 126.914394,193.026995 126.914394,193.026995 C109.92948,191.875059 111.013904,227.972605 111.013904,227.972605 L115.892414,227.972605" id="Fill-41" fill="#006B2B"></path>
            <path d="M111,230 C111,230 111,233.648506 113.529524,233.264386 C116.059047,232.880266 115.697572,230 115.697572,230 L111,230" id="Fill-42" fill="#006B2B"></path>
            <path d="M147.529524,233.264386 C150.059447,232.880266 149.697972,230 149.697972,230 L145,230 C145,230 145,233.648506 147.529524,233.264386" id="Fill-43" fill="#006B2B"></path>
            <path d="M129.130982,278.377351 C129.130982,273.193213 129.130982,249 129.130982,249 L121.542012,249 C121.542012,249 121,274.153301 121,278.377351 C121,282.601401 129.130982,283.56149 129.130982,278.377351" id="Fill-44" fill="#006B2B"></path>
            <path d="M139.130982,278.377351 C139.130982,274.153301 138.58897,249 138.58897,249 L131,249 C131,249 131,273.193213 131,278.377351 C131,283.56149 139.130982,282.601401 139.130982,278.377351" id="Fill-45" fill="#006B2B"></path>
            <path d="M214.209162,250.697067 C219.847367,250.697067 224.417924,245.840174 224.417924,239.848746 C224.417924,233.857318 219.847367,229 214.209162,229 C208.570957,229 204,233.857318 204,239.848746 C204,245.840174 208.570957,250.697067 214.209162,250.697067" id="Fill-25" fill="#006B2B"></path>
            <path d="M200.892414,287.972605 C200.711477,273.955822 204.867436,264.547633 204.867436,264.547633 C210.468895,276.260119 206.854948,278.948113 204.144487,285.86058 C201.434426,292.772624 200.711477,306.981255 200.711477,306.981255 L229.621858,306.981255 C229.440921,286.244701 225.104424,282.788467 223.839862,277.796176 C222.5749,272.803885 224.381874,264.163513 224.381874,264.163513 C230.344408,269.155804 230.525345,288.164453 230.525345,288.164453 L235.584392,288.356726 C235.584392,288.356726 235.04238,270.30774 230.525345,260.899551 C226.007911,251.490938 217.876928,253.411115 217.876928,253.411115 C218.418941,263.203424 215.166867,268.963956 215.166867,268.963956 C212.636944,264.547633 211.914394,253.026995 211.914394,253.026995 C194.92948,251.875059 196.013904,287.972605 196.013904,287.972605 L200.892414,287.972605" id="Fill-41" fill="#006B2B"></path>
            <path d="M196,290 C196,290 196,293.648506 198.529524,293.264386 C201.059047,292.880266 200.697572,290 200.697572,290 L196,290" id="Fill-42" fill="#006B2B"></path>
            <path d="M232.529524,293.264386 C235.059447,292.880266 234.697972,290 234.697972,290 L230,290 C230,290 230,293.648506 232.529524,293.264386" id="Fill-43" fill="#006B2B"></path>
            <path d="M214.130982,338.377351 C214.130982,333.193213 214.130982,309 214.130982,309 L206.542012,309 C206.542012,309 206,334.153301 206,338.377351 C206,342.601401 214.130982,343.56149 214.130982,338.377351" id="Fill-44" fill="#006B2B"></path>
            <path d="M224.130982,338.377351 C224.130982,334.153301 223.58897,309 223.58897,309 L216,309 C216,309 216,333.193213 216,338.377351 C216,343.56149 224.130982,342.601401 224.130982,338.377351" id="Fill-45" fill="#006B2B"></path>
            <path d="M262.62477,516.697067 C268.262975,516.697067 272.833532,511.840174 272.833532,505.848746 C272.833532,499.857318 268.262975,495 262.62477,495 C256.986564,495 252.415608,499.857318 252.415608,505.848746 C252.415608,511.840174 256.986564,516.697067 262.62477,516.697067" id="Fill-25" fill="#006B2B"></path>
            <path d="M249.308022,553.972605 C249.127085,539.955822 253.283044,530.547633 253.283044,530.547633 C258.884503,542.260119 255.270556,544.948113 252.560095,551.86058 C249.850034,558.772624 249.127085,572.981255 249.127085,572.981255 L278.037466,572.981255 C277.856529,552.244701 273.520032,548.788467 272.25547,543.796176 C270.990508,538.803885 272.797482,530.163513 272.797482,530.163513 C278.760016,535.155804 278.940953,554.164453 278.940953,554.164453 L284,554.356726 C284,554.356726 283.457988,536.30774 278.940953,526.899551 C274.423519,517.490938 266.292536,519.411115 266.292536,519.411115 C266.834548,529.203424 263.582475,534.963956 263.582475,534.963956 C261.052552,530.547633 260.330002,519.026995 260.330002,519.026995 C243.345088,517.875059 244.429512,553.972605 244.429512,553.972605 L249.308022,553.972605" id="Fill-41" fill="#006B2B"></path>
            <path d="M262.54659,604.377351 C262.54659,599.193213 262.54659,575 262.54659,575 L254.95762,575 C254.95762,575 254.415608,600.153301 254.415608,604.377351 C254.415608,608.601401 262.54659,609.56149 262.54659,604.377351" id="Fill-44" fill="#006B2B"></path>
            <path d="M272.54659,604.377351 C272.54659,600.153301 272.004578,575 272.004578,575 L264.415608,575 C264.415608,575 264.415608,599.193213 264.415608,604.377351 C264.415608,609.56149 272.54659,608.601401 272.54659,604.377351" id="Fill-45" fill="#006B2B"></path>
            <path d="M515.209162,259.697067 C520.847367,259.697067 525.417924,254.840174 525.417924,248.848746 C525.417924,242.857318 520.847367,238 515.209162,238 C509.570957,238 505,242.857318 505,248.848746 C505,254.840174 509.570957,259.697067 515.209162,259.697067" id="Fill-25" fill="#006B2B"></path>
            <path d="M501.892414,296.972605 C501.711477,282.955822 505.867436,273.547633 505.867436,273.547633 C511.468895,285.260119 507.854948,287.948113 505.144487,294.86058 C502.434426,301.772624 501.711477,315.981255 501.711477,315.981255 L530.621858,315.981255 C530.440921,295.244701 526.104424,291.788467 524.839862,286.796176 C523.5749,281.803885 525.381874,273.163513 525.381874,273.163513 C531.344408,278.155804 531.525345,297.164453 531.525345,297.164453 L536.584392,297.356726 C536.584392,297.356726 536.04238,279.30774 531.525345,269.899551 C527.007911,260.490938 518.876928,262.411115 518.876928,262.411115 C519.418941,272.203424 516.166867,277.963956 516.166867,277.963956 C513.636944,273.547633 512.914394,262.026995 512.914394,262.026995 C495.92948,260.875059 497.013904,296.972605 497.013904,296.972605 L501.892414,296.972605" id="Fill-41" fill="#006B2B"></path>
            <path d="M497,299 C497,299 497,302.648506 499.529524,302.264386 C502.059047,301.880266 501.697572,299 501.697572,299 L497,299" id="Fill-42" fill="#006B2B"></path>
            <path d="M533.529524,302.264386 C536.059447,301.880266 535.697972,299 535.697972,299 L531,299 C531,299 531,302.648506 533.529524,302.264386" id="Fill-43" fill="#006B2B"></path>
            <path d="M515.130982,347.377351 C515.130982,342.193213 515.130982,318 515.130982,318 L507.542012,318 C507.542012,318 507,343.153301 507,347.377351 C507,351.601401 515.130982,352.56149 515.130982,347.377351" id="Fill-44" fill="#006B2B"></path>
            <path d="M525.130982,347.377351 C525.130982,343.153301 524.58897,318 524.58897,318 L517,318 C517,318 517,342.193213 517,347.377351 C517,352.56149 525.130982,351.601401 525.130982,347.377351" id="Fill-45" fill="#006B2B"></path>
            <path d="M318.209162,91.6970673 C323.847367,91.6970673 328.417924,86.8401738 328.417924,80.8487459 C328.417924,74.857318 323.847367,70 318.209162,70 C312.570957,70 308,74.857318 308,80.8487459 C308,86.8401738 312.570957,91.6970673 318.209162,91.6970673" id="Fill-46" fill="#006B2B"></path>
            <path d="M321.876928,95.4111155 C320.973441,101.36307 318.98593,103.091399 318.98593,103.091399 C316.456407,98.675077 315.914394,95.0269952 315.914394,95.0269952 C298.92948,93.8750587 300.013904,129.972605 300.013904,129.972605 L304.892414,129.972605 C304.711477,115.955822 308.867436,106.547633 308.867436,106.547633 C314.468895,118.260119 310.854948,120.948113 308.144487,127.86058 C305.434426,134.772624 304.711477,169.334113 304.711477,169.334113 L333.621858,169.334113 C333.440921,148.597135 334.88682,138.420705 327.839862,119.796176 C326.0249,114.999129 328.381874,106.163513 328.381874,106.163513 C334.344408,111.155804 334.525345,130.164453 334.525345,130.164453 L339.584392,130.356301 C339.584392,130.356301 339.04238,112.30774 334.525345,102.899127 C330.007911,93.4909384 321.876928,95.4111155 321.876928,95.4111155" id="Fill-47" fill="#006B2B"></path>
            <path d="M304.697572,131 L300,131 C300,131 300,134.648082 302.529524,134.264386 C305.059047,133.880266 304.697572,131 304.697572,131" id="Fill-48" fill="#006B2B"></path>
            <path d="M334,131 C334,131 334,134.648082 336.529524,134.264386 C339.059447,133.880266 338.697972,131 338.697972,131 L334,131" id="Fill-49" fill="#006B2B"></path>
            <path d="M310.553007,171 C310.553007,171 310.128824,180.482466 310.010995,182.069456 C309.64952,186.923803 318.322515,187.492555 318.141977,182.069456 C318.076872,180.117021 318.141977,171 318.141977,171 L310.553007,171" id="Fill-50" fill="#006B2B"></path>
            <path d="M328.59175,171 L321.00278,171 C321.00278,171 321.067886,180.117021 321.00278,182.069456 C320.822243,187.492555 329.495237,186.923803 329.133763,182.069456 C329.015934,180.482466 328.59175,171 328.59175,171" id="Fill-51" fill="#006B2B"></path>
            <path d="M356.209162,248.697067 C361.847367,248.697067 366.417924,243.840174 366.417924,237.848746 C366.417924,231.857318 361.847367,227 356.209162,227 C350.570957,227 346,231.857318 346,237.848746 C346,243.840174 350.570957,248.697067 356.209162,248.697067" id="Fill-46" fill="#006B2B"></path>
            <path d="M359.876928,252.411115 C358.973441,258.36307 356.98593,260.091399 356.98593,260.091399 C354.456407,255.675077 353.914394,252.026995 353.914394,252.026995 C336.92948,250.875059 338.013904,286.972605 338.013904,286.972605 L342.892414,286.972605 C342.711477,272.955822 346.867436,263.547633 346.867436,263.547633 C352.468895,275.260119 348.854948,277.948113 346.144487,284.86058 C343.434426,291.772624 342.711477,326.334113 342.711477,326.334113 L371.621858,326.334113 C371.440921,305.597135 372.88682,295.420705 365.839862,276.796176 C364.0249,271.999129 366.381874,263.163513 366.381874,263.163513 C372.344408,268.155804 372.525345,287.164453 372.525345,287.164453 L377.584392,287.356301 C377.584392,287.356301 377.04238,269.30774 372.525345,259.899127 C368.007911,250.490938 359.876928,252.411115 359.876928,252.411115" id="Fill-47" fill="#006B2B"></path>
            <path d="M342.697572,288 L338,288 C338,288 338,291.648082 340.529524,291.264386 C343.059047,290.880266 342.697572,288 342.697572,288" id="Fill-48" fill="#006B2B"></path>
            <path d="M372,288 C372,288 372,291.648082 374.529524,291.264386 C377.059447,290.880266 376.697972,288 376.697972,288 L372,288" id="Fill-49" fill="#006B2B"></path>
            <path d="M348.553007,328 C348.553007,328 348.128824,337.482466 348.010995,339.069456 C347.64952,343.923803 356.322515,344.492555 356.141977,339.069456 C356.076872,337.117021 356.141977,328 356.141977,328 L348.553007,328" id="Fill-50" fill="#006B2B"></path>
            <path d="M366.59175,328 L359.00278,328 C359.00278,328 359.067886,337.117021 359.00278,339.069456 C358.822243,344.492555 367.495237,343.923803 367.133763,339.069456 C367.015934,337.482466 366.59175,328 366.59175,328" id="Fill-51" fill="#006B2B"></path>
        </g>
    </g>
</svg>